<svg width="20" height="20" viewBox="0 0 20 20" fill="none" xmlns="http://www.w3.org/2000/svg">
<g id="fi-rr-box" clip-path="url(#clip0_664_2400)">
<path id="Vector" d="M7.49935 11.6667H12.4993C12.7204 11.6667 12.9323 11.5789 13.0886 11.4226C13.2449 11.2663 13.3327 11.0544 13.3327 10.8333C13.3327 10.6123 13.2449 10.4004 13.0886 10.2441C12.9323 10.0878 12.7204 10 12.4993 10H7.49935C7.27833 10 7.06637 10.0878 6.91009 10.2441C6.75381 10.4004 6.66602 10.6123 6.66602 10.8333C6.66602 11.0544 6.75381 11.2663 6.91009 11.4226C7.06637 11.5789 7.27833 11.6667 7.49935 11.6667Z" fill="white" fill-opacity="0.5"/>
<path id="Vector_2" d="M15.8333 0H4.16667C3.062 0.00132321 2.00296 0.440735 1.22185 1.22185C0.440735 2.00296 0.00132321 3.062 0 4.16667L0 5C0.00024234 5.35145 0.074584 5.6989 0.218174 6.01968C0.361765 6.34046 0.571377 6.62737 0.833333 6.86167V15.8333C0.834657 16.938 1.27407 17.997 2.05518 18.7782C2.8363 19.5593 3.89534 19.9987 5 20H15C16.1047 19.9987 17.1637 19.5593 17.9448 18.7782C18.7259 17.997 19.1653 16.938 19.1667 15.8333V6.86167C19.4286 6.62737 19.6382 6.34046 19.7818 6.01968C19.9254 5.6989 19.9998 5.35145 20 5V4.16667C19.9987 3.062 19.5593 2.00296 18.7782 1.22185C17.997 0.440735 16.938 0.00132321 15.8333 0V0ZM1.66667 4.16667C1.66667 3.50363 1.93006 2.86774 2.3989 2.3989C2.86774 1.93006 3.50363 1.66667 4.16667 1.66667H15.8333C16.4964 1.66667 17.1323 1.93006 17.6011 2.3989C18.0699 2.86774 18.3333 3.50363 18.3333 4.16667V5C18.3333 5.22101 18.2455 5.43297 18.0893 5.58926C17.933 5.74554 17.721 5.83333 17.5 5.83333H2.5C2.27899 5.83333 2.06702 5.74554 1.91074 5.58926C1.75446 5.43297 1.66667 5.22101 1.66667 5V4.16667ZM17.5 15.8333C17.5 16.4964 17.2366 17.1323 16.7678 17.6011C16.2989 18.0699 15.663 18.3333 15 18.3333H5C4.33696 18.3333 3.70107 18.0699 3.23223 17.6011C2.76339 17.1323 2.5 16.4964 2.5 15.8333V7.5H17.5V15.8333Z" fill="white" fill-opacity="0.5"/>
</g>
<defs>
<clipPath id="clip0_664_2400">
<rect width="20" height="20" fill="white"/>
</clipPath>
</defs>
</svg>
