<svg width="20" height="20" viewBox="0 0 20 20" fill="none" xmlns="http://www.w3.org/2000/svg">
<g id="fi-rr-computer" clip-path="url(#clip0_664_2420)">
<path id="Vector" d="M15.8333 0.833191H4.16667C3.062 0.834514 2.00296 1.27393 1.22185 2.05504C0.440735 2.83616 0.00132321 3.89519 0 4.99986L0 11.6665C0.00132321 12.7712 0.440735 13.8302 1.22185 14.6113C2.00296 15.3925 3.062 15.8319 4.16667 15.8332H9.16667V17.4999H5.83333C5.61232 17.4999 5.40036 17.5877 5.24408 17.7439C5.0878 17.9002 5 18.1122 5 18.3332C5 18.5542 5.0878 18.7662 5.24408 18.9224C5.40036 19.0787 5.61232 19.1665 5.83333 19.1665H14.1667C14.3877 19.1665 14.5996 19.0787 14.7559 18.9224C14.9122 18.7662 15 18.5542 15 18.3332C15 18.1122 14.9122 17.9002 14.7559 17.7439C14.5996 17.5877 14.3877 17.4999 14.1667 17.4999H10.8333V15.8332H15.8333C16.938 15.8319 17.997 15.3925 18.7782 14.6113C19.5593 13.8302 19.9987 12.7712 20 11.6665V4.99986C19.9987 3.89519 19.5593 2.83616 18.7782 2.05504C17.997 1.27393 16.938 0.834514 15.8333 0.833191ZM4.16667 2.49986H15.8333C16.4964 2.49986 17.1323 2.76325 17.6011 3.23209C18.0699 3.70093 18.3333 4.33682 18.3333 4.99986V10.8332H1.66667V4.99986C1.66667 4.33682 1.93006 3.70093 2.3989 3.23209C2.86774 2.76325 3.50363 2.49986 4.16667 2.49986ZM15.8333 14.1665H4.16667C3.65145 14.1644 3.14948 14.0031 2.72942 13.7048C2.30936 13.4064 1.99174 12.9856 1.82 12.4999H18.18C18.0083 12.9856 17.6906 13.4064 17.2706 13.7048C16.8505 14.0031 16.3486 14.1644 15.8333 14.1665Z" fill="white" fill-opacity="0.5"/>
</g>
<defs>
<clipPath id="clip0_664_2420">
<rect width="20" height="20" fill="white"/>
</clipPath>
</defs>
</svg>
