<svg width="20" height="20" viewBox="0 0 20 20" fill="none" xmlns="http://www.w3.org/2000/svg">
<g id="fi-rr-credit-card" clip-path="url(#clip0_664_2410)">
<path id="Vector" d="M4.58398 14.1668C5.27434 14.1668 5.83398 13.6072 5.83398 12.9168C5.83398 12.2265 5.27434 11.6668 4.58398 11.6668C3.89363 11.6668 3.33398 12.2265 3.33398 12.9168C3.33398 13.6072 3.89363 14.1668 4.58398 14.1668Z" fill="white" fill-opacity="0.5"/>
<path id="Vector_2" d="M15.8333 2.5H4.16667C3.062 2.50132 2.00296 2.94073 1.22185 3.72185C0.440735 4.50296 0.00132321 5.562 0 6.66667L0 13.3333C0.00132321 14.438 0.440735 15.497 1.22185 16.2782C2.00296 17.0593 3.062 17.4987 4.16667 17.5H15.8333C16.938 17.4987 17.997 17.0593 18.7782 16.2782C19.5593 15.497 19.9987 14.438 20 13.3333V6.66667C19.9987 5.562 19.5593 4.50296 18.7782 3.72185C17.997 2.94073 16.938 2.50132 15.8333 2.5ZM4.16667 4.16667H15.8333C16.4964 4.16667 17.1323 4.43006 17.6011 4.8989C18.0699 5.36774 18.3333 6.00363 18.3333 6.66667H1.66667C1.66667 6.00363 1.93006 5.36774 2.3989 4.8989C2.86774 4.43006 3.50363 4.16667 4.16667 4.16667ZM15.8333 15.8333H4.16667C3.50363 15.8333 2.86774 15.5699 2.3989 15.1011C1.93006 14.6323 1.66667 13.9964 1.66667 13.3333V8.33333H18.3333V13.3333C18.3333 13.9964 18.0699 14.6323 17.6011 15.1011C17.1323 15.5699 16.4964 15.8333 15.8333 15.8333Z" fill="white" fill-opacity="0.5"/>
</g>
<defs>
<clipPath id="clip0_664_2410">
<rect width="20" height="20" fill="white"/>
</clipPath>
</defs>
</svg>
