<svg width="20" height="20" viewBox="0 0 20 20" fill="none" xmlns="http://www.w3.org/2000/svg">
<g id="Group">
<path id="Vector" d="M10 12.4932C8.6193 12.4932 7.5 13.6125 7.5 14.9932V19.9932H12.5V14.9932C12.5 13.6125 11.3807 12.4932 10 12.4932Z" fill="white" fill-opacity="0.3"/>
<g id="Group_2">
<path id="Vector_2" d="M14.1667 14.9934V19.9934H17.5C18.8807 19.9934 20 18.8741 20 17.4934V9.89259C20.0002 9.45966 19.832 9.04364 19.5308 8.73259L12.4492 1.07673C11.1996 -0.275227 9.09074 -0.358234 7.73879 0.891297C7.67457 0.950672 7.6127 1.01251 7.55336 1.07673L0.48418 8.73009C0.173945 9.04243 -0.000117128 9.46485 5.9134e-08 9.90509V17.4934C5.9134e-08 18.8741 1.1193 19.9934 2.5 19.9934H5.83332V14.9934C5.84891 12.7211 7.68355 10.8654 9.89867 10.812C12.1879 10.7568 14.1492 12.644 14.1667 14.9934Z" fill="white" fill-opacity="0.3"/>
<path id="Vector_3" d="M10 12.4932C8.6193 12.4932 7.5 13.6125 7.5 14.9932V19.9932H12.5V14.9932C12.5 13.6125 11.3807 12.4932 10 12.4932Z" fill="white" fill-opacity="0.3"/>
</g>
</g>
</svg>
