<svg width="16" height="16" viewBox="0 0 16 16" fill="none" xmlns="http://www.w3.org/2000/svg">
<g id="fi-rr-align-right" clip-path="url(#clip0_403_1607)">
<path id="Vector" d="M12.0007 0.666667L12.0007 15.3333C12.0007 15.5101 12.0709 15.6797 12.1959 15.8047C12.3209 15.9298 12.4905 16 12.6673 16C12.8441 16 13.0137 15.9298 13.1387 15.8047C13.2637 15.6797 13.334 15.5101 13.334 15.3333L13.334 0.666667C13.334 0.489856 13.2637 0.320286 13.1387 0.195262C13.0137 0.0702379 12.8441 -2.14122e-08 12.6673 -2.91409e-08C12.4905 -3.68695e-08 12.3209 0.0702379 12.1959 0.195262C12.0709 0.320286 12.0007 0.489856 12.0007 0.666667Z" fill="white"/>
<path id="Vector_2" d="M10 15.3335L10 6.00016C10 5.82335 9.92976 5.65378 9.80474 5.52876C9.67971 5.40373 9.51015 5.3335 9.33333 5.3335C9.15652 5.3335 8.98696 5.40373 8.86193 5.52876C8.73691 5.65378 8.66667 5.82335 8.66667 6.00016L8.66667 15.3335C8.66667 15.5103 8.73691 15.6799 8.86193 15.8049C8.98695 15.9299 9.15652 16.0002 9.33333 16.0002C9.51014 16.0002 9.67971 15.9299 9.80474 15.8049C9.92976 15.6799 10 15.5103 10 15.3335Z" fill="white"/>
<path id="Vector_3" d="M3.33398 15.3335L3.33398 6.00016C3.33398 5.82335 3.26375 5.65378 3.13872 5.52876C3.0137 5.40373 2.84413 5.3335 2.66731 5.3335C2.4905 5.3335 2.32093 5.40373 2.19591 5.52876C2.07088 5.65378 2.00064 5.82335 2.00064 6.00016L2.00064 15.3335C2.00064 15.5103 2.07088 15.6799 2.19591 15.8049C2.32093 15.9299 2.4905 16.0002 2.66731 16.0002C2.84413 16.0002 3.0137 15.9299 3.13872 15.8049C3.26375 15.6799 3.33398 15.5103 3.33398 15.3335Z" fill="white"/>
<path id="Vector_4" d="M6.66601 15.3333L6.66602 0.666667C6.66602 0.489856 6.59578 0.320286 6.47075 0.195262C6.34573 0.0702379 6.17616 -2.14124e-08 5.99935 -2.91411e-08C5.82253 -3.68698e-08 5.65296 0.0702379 5.52794 0.195262C5.40291 0.320286 5.33267 0.489856 5.33267 0.666667L5.33267 15.3333C5.33267 15.5101 5.40291 15.6797 5.52794 15.8047C5.65296 15.9298 5.82253 16 5.99934 16C6.17616 16 6.34573 15.9298 6.47075 15.8047C6.59578 15.6797 6.66601 15.5101 6.66601 15.3333Z" fill="white"/>
</g>
<defs>
<clipPath id="clip0_403_1607">
<rect width="16" height="16" fill="white" transform="translate(16) rotate(90)"/>
</clipPath>
</defs>
</svg>
