<svg width="20" height="20" viewBox="0 0 20 20" fill="none" xmlns="http://www.w3.org/2000/svg">
<g id="fi-rr-phone-call" clip-path="url(#clip0_744_2340)">
<path id="Vector" d="M10.834 0.833444C10.834 0.61243 10.9218 0.400468 11.078 0.244188C11.2343 0.0879075 11.4463 0.000110103 11.6673 0.000110103C13.8767 0.00253643 15.9949 0.881289 17.5572 2.44357C19.1194 4.00584 19.9982 6.12405 20.0006 8.33344C20.0006 8.55446 19.9128 8.76642 19.7565 8.9227C19.6003 9.07898 19.3883 9.16678 19.1673 9.16678C18.9463 9.16678 18.7343 9.07898 18.578 8.9227C18.4217 8.76642 18.3339 8.55446 18.3339 8.33344C18.332 6.56594 17.6289 4.8714 16.3791 3.62159C15.1293 2.37178 13.4348 1.66876 11.6673 1.66678C11.4463 1.66678 11.2343 1.57898 11.078 1.4227C10.9218 1.26642 10.834 1.05446 10.834 0.833444ZM11.6673 5.00011C12.5513 5.00011 13.3992 5.3513 14.0243 5.97642C14.6494 6.60154 15.0006 7.44939 15.0006 8.33344C15.0006 8.55446 15.0884 8.76642 15.2447 8.9227C15.401 9.07898 15.6129 9.16678 15.834 9.16678C16.055 9.16678 16.2669 9.07898 16.4232 8.9227C16.5795 8.76642 16.6673 8.55446 16.6673 8.33344C16.666 7.00777 16.1388 5.73677 15.2014 4.79937C14.264 3.86198 12.993 3.33477 11.6673 3.33344C11.4463 3.33344 11.2343 3.42124 11.078 3.57752C10.9218 3.7338 10.834 3.94576 10.834 4.16678C10.834 4.38779 10.9218 4.59975 11.078 4.75603C11.2343 4.91231 11.4463 5.00011 11.6673 5.00011ZM19.2448 13.9493C19.7277 14.4335 19.9989 15.0895 19.9989 15.7734C19.9989 16.4573 19.7277 17.1133 19.2448 17.5976L18.4865 18.4718C11.6615 25.0059 -4.94685 8.40178 1.48647 1.55511L2.4448 0.721777C2.92961 0.252341 3.57974 -0.007349 4.25455 -0.00111086C4.92936 0.00512727 5.57459 0.276792 6.05063 0.75511C6.07647 0.780944 7.62063 2.78678 7.62063 2.78678C8.07882 3.26813 8.33388 3.90755 8.3328 4.57211C8.33171 5.23667 8.07456 5.87526 7.6148 6.35511L6.6498 7.56844C7.18384 8.86604 7.96902 10.0453 8.96022 11.0385C9.95142 12.0317 11.1291 12.8193 12.4256 13.3559L13.6465 12.3851C14.1264 11.9257 14.7648 11.6689 15.4292 11.6679C16.0936 11.667 16.7327 11.9221 17.214 12.3801C17.214 12.3801 19.2189 13.9234 19.2448 13.9493ZM18.0981 15.1609C18.0981 15.1609 16.104 13.6268 16.0781 13.6009C15.9064 13.4307 15.6745 13.3352 15.4327 13.3352C15.1909 13.3352 14.959 13.4307 14.7873 13.6009C14.7648 13.6243 13.084 14.9634 13.084 14.9634C12.9707 15.0536 12.8359 15.1127 12.6928 15.1349C12.5498 15.1571 12.4034 15.1417 12.2681 15.0901C10.5885 14.4648 9.06291 13.4857 7.79466 12.2193C6.52641 10.953 5.54513 9.4288 4.9173 7.75011C4.86163 7.61299 4.84348 7.46352 4.86472 7.31706C4.88596 7.1706 4.94581 7.03244 5.03813 6.91678C5.03813 6.91678 6.3773 5.23511 6.3998 5.21344C6.57002 5.04177 6.66553 4.80979 6.66553 4.56803C6.66553 4.32626 6.57002 4.09429 6.3998 3.92261C6.37396 3.89761 4.8398 1.90178 4.8398 1.90178C4.66555 1.74553 4.43814 1.66186 4.20417 1.6679C3.97021 1.67394 3.74742 1.76925 3.58147 1.93428L2.62314 2.76761C-2.07853 8.42094 12.314 22.0151 17.2681 17.3334L18.0273 16.4584C18.2052 16.2937 18.312 16.0662 18.3253 15.824C18.3385 15.5819 18.257 15.3441 18.0981 15.1609Z" fill="#838383"/>
</g>
<defs>
<clipPath id="clip0_744_2340">
<rect width="20" height="20" fill="white"/>
</clipPath>
</defs>
</svg>
