<svg width="20" height="20" viewBox="0 0 20 20" fill="none" xmlns="http://www.w3.org/2000/svg">
<g id="fi-rr-comment" clip-path="url(#clip0_746_2344)">
<path id="Vector" d="M19.999 9.3726C19.8785 7.42262 19.1899 5.55053 18.0183 3.98712C16.8467 2.42372 15.2432 1.23735 13.4054 0.574266C11.5677 -0.0888154 9.57607 -0.199619 7.67612 0.255516C5.77617 0.710651 4.05094 1.71183 2.71311 3.13562C1.37529 4.55941 0.483355 6.34357 0.147272 8.26815C-0.18881 10.1927 0.0456512 12.1736 0.821751 13.9665C1.59785 15.7595 2.88166 17.2861 4.51491 18.3582C6.14816 19.4304 8.05945 20.0011 10.0132 20.0001H15.8323C16.9371 19.999 17.9962 19.5597 18.7774 18.7785C19.5585 17.9973 19.9979 16.9382 19.999 15.8334V9.3726ZM18.3323 15.8334C18.3323 16.4965 18.0689 17.1324 17.6001 17.6012C17.1312 18.07 16.4954 18.3334 15.8323 18.3334H10.0132C8.83727 18.3329 7.67469 18.0845 6.60123 17.6045C5.52778 17.1245 4.56755 16.4236 3.78315 15.5476C2.99497 14.672 2.4031 13.638 2.04723 12.5149C1.69137 11.3919 1.57974 10.2057 1.71982 9.03594C1.94102 7.19089 2.76998 5.47193 4.07602 4.15004C5.38207 2.82815 7.09091 1.97853 8.93315 1.7351C9.29252 1.69006 9.65431 1.66724 10.0165 1.66677C11.9585 1.66147 13.8405 2.34002 15.3323 3.58344C16.2036 4.30756 16.9187 5.20106 17.4344 6.20979C17.9501 7.21853 18.2556 8.32147 18.3323 9.45177V15.8334Z" fill="#838383"/>
<path id="Vector_2" d="M6.66732 7.49992H10.0007C10.2217 7.49992 10.4336 7.41212 10.5899 7.25584C10.7462 7.09956 10.834 6.8876 10.834 6.66658C10.834 6.44557 10.7462 6.23361 10.5899 6.07733C10.4336 5.92105 10.2217 5.83325 10.0007 5.83325H6.66732C6.4463 5.83325 6.23434 5.92105 6.07806 6.07733C5.92178 6.23361 5.83398 6.44557 5.83398 6.66658C5.83398 6.8876 5.92178 7.09956 6.07806 7.25584C6.23434 7.41212 6.4463 7.49992 6.66732 7.49992Z" fill="#838383"/>
<path id="Vector_3" d="M13.334 9.16675H6.66732C6.4463 9.16675 6.23434 9.25455 6.07806 9.41083C5.92178 9.56711 5.83398 9.77907 5.83398 10.0001C5.83398 10.2211 5.92178 10.4331 6.07806 10.5893C6.23434 10.7456 6.4463 10.8334 6.66732 10.8334H13.334C13.555 10.8334 13.767 10.7456 13.9232 10.5893C14.0795 10.4331 14.1673 10.2211 14.1673 10.0001C14.1673 9.77907 14.0795 9.56711 13.9232 9.41083C13.767 9.25455 13.555 9.16675 13.334 9.16675Z" fill="#838383"/>
<path id="Vector_4" d="M13.334 12.5H6.66732C6.4463 12.5 6.23434 12.5878 6.07806 12.7441C5.92178 12.9004 5.83398 13.1123 5.83398 13.3333C5.83398 13.5544 5.92178 13.7663 6.07806 13.9226C6.23434 14.0789 6.4463 14.1667 6.66732 14.1667H13.334C13.555 14.1667 13.767 14.0789 13.9232 13.9226C14.0795 13.7663 14.1673 13.5544 14.1673 13.3333C14.1673 13.1123 14.0795 12.9004 13.9232 12.7441C13.767 12.5878 13.555 12.5 13.334 12.5Z" fill="#838383"/>
</g>
<defs>
<clipPath id="clip0_746_2344">
<rect width="20" height="20" fill="white"/>
</clipPath>
</defs>
</svg>
