<svg width="20" height="20" viewBox="0 0 20 20" fill="none" xmlns="http://www.w3.org/2000/svg">
<g id="fi-rr-star" clip-path="url(#clip0_746_2342)">
<path id="Vector" d="M19.864 7.32858C19.6935 6.786 19.353 6.31267 18.8927 5.97861C18.4324 5.64454 17.8768 5.46747 17.3081 5.47358H13.6673L12.5615 2.02691C12.3876 1.48438 12.0459 1.01109 11.5856 0.675301C11.1254 0.339511 10.5704 0.158569 10.0006 0.158569C9.43093 0.158569 8.87592 0.339511 8.41567 0.675301C7.95543 1.01109 7.61371 1.48438 7.43982 2.02691L6.33398 5.47358H2.69315C2.12627 5.47439 1.57414 5.65432 1.11563 5.98767C0.657122 6.32102 0.315683 6.79074 0.140084 7.32974C-0.0355159 7.86873 -0.0362931 8.44944 0.137863 8.98891C0.312019 9.52837 0.6522 9.999 1.10982 10.3336L4.07315 12.5002L2.94648 15.9894C2.76441 16.5306 2.7621 17.1161 2.93991 17.6587C3.11771 18.2012 3.4661 18.6718 3.93315 19.0002C4.39219 19.3392 4.94848 19.5208 5.51911 19.518C6.08974 19.5151 6.64418 19.328 7.09982 18.9844L10.0006 16.8494L12.9023 18.9819C13.3605 19.319 13.9138 19.502 14.4826 19.5048C15.0514 19.5076 15.6065 19.3299 16.068 18.9973C16.5294 18.6648 16.8736 18.1945 17.0509 17.654C17.2282 17.1135 17.2296 16.5307 17.0548 15.9894L15.9281 12.5002L18.8948 10.3336C19.3577 10.0032 19.7018 9.53258 19.8764 8.99137C20.0509 8.45016 20.0466 7.86713 19.864 7.32858ZM17.9115 8.98775L14.4581 11.5119C14.3163 11.6154 14.2108 11.761 14.1566 11.928C14.1024 12.095 14.1024 12.2749 14.1565 12.4419L15.469 16.5002C15.5354 16.7061 15.5348 16.9277 15.4674 17.1332C15.3999 17.3387 15.269 17.5175 15.0935 17.6439C14.918 17.7703 14.7069 17.8378 14.4907 17.8367C14.2744 17.8356 14.064 17.7659 13.8898 17.6377L10.494 15.1377C10.351 15.0327 10.1781 14.976 10.0006 14.976C9.82318 14.976 9.65034 15.0327 9.50732 15.1377L6.11148 17.6377C5.93738 17.7677 5.72643 17.8388 5.5092 17.8408C5.29198 17.8427 5.07977 17.7755 4.90334 17.6487C4.72691 17.522 4.59544 17.3423 4.52798 17.1358C4.46052 16.9293 4.46058 16.7067 4.52815 16.5002L5.84482 12.4419C5.89891 12.2749 5.89887 12.095 5.8447 11.928C5.79053 11.761 5.68499 11.6154 5.54315 11.5119L2.08982 8.98775C1.9159 8.86041 1.78668 8.68137 1.7206 8.4762C1.65452 8.27103 1.65497 8.05023 1.72189 7.84533C1.7888 7.64043 1.91875 7.46192 2.09318 7.33529C2.26762 7.20866 2.4776 7.1404 2.69315 7.14025H6.94315C7.11958 7.14024 7.29145 7.08424 7.43402 6.98031C7.57659 6.87638 7.68249 6.72988 7.73648 6.56191L9.02815 2.53608C9.09445 2.33007 9.22441 2.15041 9.39932 2.02295C9.57423 1.8955 9.78506 1.82683 10.0015 1.82683C10.2179 1.82683 10.4287 1.8955 10.6036 2.02295C10.7786 2.15041 10.9085 2.33007 10.9748 2.53608L12.2665 6.56191C12.3205 6.72988 12.4264 6.87638 12.5689 6.98031C12.7115 7.08424 12.8834 7.14024 13.0598 7.14025H17.3098C17.5254 7.1404 17.7353 7.20866 17.9098 7.33529C18.0842 7.46192 18.2142 7.64043 18.2811 7.84533C18.348 8.05023 18.3484 8.27103 18.2824 8.4762C18.2163 8.68137 18.0871 8.86041 17.9131 8.98775H17.9115Z" fill="#838383"/>
</g>
<defs>
<clipPath id="clip0_746_2342">
<rect width="20" height="20" fill="white"/>
</clipPath>
</defs>
</svg>
